Coordinates
version=1
nRows=6
nColumns=34
inDegrees=yes

Units are S.I. units (second, meters, Newtons, ...)
If the header above contains a line with 'inDegrees', this indicates whether rotational values are in degrees (yes) or radians (no).

endheader
time	pelvis_tilt	pelvis_list	pelvis_rotation	pelvis_tx	pelvis_ty	pelvis_tz	hip_flexion_r	hip_adduction_r	hip_rotation_r	knee_angle_r	ankle_angle_r	subtalar_angle_r	mtp_angle_r	hip_flexion_l	hip_adduction_l	hip_rotation_l	knee_angle_l	ankle_angle_l	subtalar_angle_l	mtp_angle_l	lumbar_extension	lumbar_bending	lumbar_rotation	arm_flex_r	arm_add_r	arm_rot_r	elbow_flex_r	pro_sup_r	arm_flex_l	arm_add_l	arm_rot_l	elbow_flex_l	pro_sup_l
      0.00000000	     28.37545219	     -4.46062124	     -4.92908195	     -0.63663620	      0.62708489	     -0.70073531	     43.84326489	      7.02240106	    -16.42970097	     20.21992253	     -8.56846248	      2.48574024	      0.00000000	     49.86287243	     -2.89526610	     -7.28533907	     31.84071733	      6.11394729	      8.80484703	      0.00000000	    -36.58127658	     -1.34069907	     -0.39936295	    -11.50712030	    -16.59633060	     -0.34692080	     92.49413362	    100.28111050	     75.24088193	     -8.61932264	     16.03988551	     54.66629994	     95.57220086
      0.01666670	     23.90190406	     -5.21754166	     -7.31866533	     -0.63803900	      0.62434657	     -0.69652034	     48.21589593	     10.41650367	    -12.64249629	     18.30794551	      1.67052964	     14.27028468	      0.00000000	     53.34559078	     -3.85135062	     -8.12799490	     29.97502713	      5.55768944	      3.50054225	      0.00000000	    -32.98327427	     -1.67380489	      7.93543301	    -11.35435530	    -16.82532406	     -4.12716186	     93.96257409	     99.03627296	     74.22044497	     -7.35184058	     14.25704223	     65.15083965	     95.51441258
      0.03333330	     19.34150901	     -3.69165077	     -9.22148048	     -0.63053369	      0.62203106	     -0.69674559	     53.88035987	     10.18586881	    -13.09866181	     20.95543279	      2.23034567	     17.79727621	      0.00000000	     57.77659418	     -2.56163195	     -6.18621792	     31.05986343	      4.90174198	      0.34552329	      0.00000000	    -29.60961687	     -2.26490814	     13.28159429	     -9.25588508	    -18.07611283	     -6.59961890	     96.66365382	     98.15877880	     72.59426406	     -9.43816557	     10.20380930	     78.02235641	     94.70587422
      0.05000000	     16.80527102	     -3.09218830	    -10.02581404	     -0.61783762	      0.61535145	     -0.69825726	     57.34868538	     10.44097912	    -12.95575429	     23.10275991	      1.85564248	     19.50429713	      0.00000000	     60.87730116	     -2.45724069	     -5.02206778	     31.80610323	      4.29627055	      1.29317692	      0.00000000	    -27.30116942	     -2.12295524	     16.39982400	     -3.76507397	    -19.94535200	     -6.29344577	     95.14167053	     97.69231314	     74.94738781	    -11.70985877	      8.45884038	     86.42720727	     93.26500625
      0.06666670	     15.79897419	     -2.41554635	     -9.39676871	     -0.62462415	      0.61457523	     -0.69779027	     58.95998820	      9.64652371	    -11.44592921	     24.42760096	      2.21109605	     18.32860820	      0.00000000	     62.94806604	     -1.07717568	     -3.99460641	     32.56796685	      2.23301348	      1.12962909	      0.00000000	    -26.09949938	     -2.44109333	     16.70094489	      4.90435639	    -20.65710647	     -3.32922386	     89.41931680	     97.45651024	     80.83995967	    -13.46609030	     10.74117658	     87.19478623	     91.41251000
      0.08333330	     15.04904670	     -2.30095995	     -8.92415573	     -0.61875604	      0.61481660	     -0.69999336	     60.34598964	      9.17837003	    -10.62718083	     26.25364376	      2.22064513	     17.39133620	      0.00000000	     63.69074379	     -0.49997512	     -3.35003854	     32.40889025	      1.11197929	      0.72201771	      0.00000000	    -25.83512960	     -2.08082772	     18.51473812	     10.74730628	    -20.74537668	     -3.73816145	     85.95648259	     97.12181588	     85.65899566	    -12.81545824	     11.56687208	     88.18377803	     90.57283632
